<svg width="129" height="120" viewBox="0 0 129 120" fill="none" xmlns="http://www.w3.org/2000/svg">
<mask id="mask0_571_2531" style="mask-type:alpha" maskUnits="userSpaceOnUse" x="0" y="0" width="129" height="120">
<path fill-rule="evenodd" clip-rule="evenodd" d="M4.74774 3.35003L6.08215 1.44476L8.56715 0L10.6905 0.235979L12.558 0.665515L16.3115 1.95856L38.7541 11.8158C46.6375 8.81047 55.3407 7.14374 64.4888 7.14374C73.5931 7.14374 82.2567 8.79454 90.1101 11.7727L112.455 1.95856L116.208 0.665515L118.076 0.235979L120.199 0L122.684 1.44476L124.018 3.35003L124.479 4.93206L124.368 7.53565L124.183 11.875L124.016 15.7805L123.831 20.1199L121.224 36.7236C126.169 44.7076 128.978 53.8528 128.978 63.5718C128.978 94.7362 100.105 120 64.4888 120C28.8726 120 0 94.7362 0 63.5718C0 53.9637 2.7444 44.9164 7.58471 36.9975L4.93545 20.1199L4.75017 15.7805L4.58342 11.875L4.39814 7.53565L4.28698 4.93206L4.74774 3.35003Z" fill="white"/>
</mask>
<g mask="url(#mask0_571_2531)">
<path d="M6.08215 1.44473L3.06644 -3.74232L1.92504 -3.07872L1.16763 -1.99729L6.08215 1.44473ZM4.74774 3.35L-0.166778 -0.0920129L-0.735623 0.720185L-1.0129 1.67221L4.74774 3.35ZM8.56715 -2.57492e-05L9.22987 -5.96332L7.26262 -6.18195L5.55144 -5.18708L8.56715 -2.57492e-05ZM10.6905 0.235953L12.0355 -5.61137L11.6977 -5.68906L11.3533 -5.72734L10.6905 0.235953ZM12.558 0.665489L14.5122 -5.00734L14.2122 -5.1107L13.9029 -5.18184L12.558 0.665489ZM16.3115 1.95853L18.7243 -3.53494L18.4987 -3.63404L18.2657 -3.7143L16.3115 1.95853ZM38.7541 11.8158L36.3413 17.3093L38.5932 18.2984L40.8914 17.4222L38.7541 11.8158ZM90.1101 11.7727L87.9826 17.3829L90.2766 18.2528L92.5229 17.2662L90.1101 11.7727ZM112.455 1.95853L110.5 -3.7143L110.267 -3.63404L110.042 -3.53494L112.455 1.95853ZM116.208 0.665489L114.863 -5.18184L114.554 -5.1107L114.254 -5.00734L116.208 0.665489ZM118.076 0.235953L117.413 -5.72734L117.068 -5.68906L116.731 -5.61137L118.076 0.235953ZM120.199 -2.57492e-05L123.215 -5.18708L121.503 -6.18195L119.536 -5.96332L120.199 -2.57492e-05ZM122.684 1.44473L127.598 -1.99729L126.841 -3.07872L125.7 -3.74232L122.684 1.44473ZM124.018 3.35L129.779 1.67223L129.502 0.720186L128.933 -0.0920205L124.018 3.35ZM124.479 4.93203L130.474 5.18798L130.516 4.20188L130.24 3.25426L124.479 4.93203ZM124.368 7.53562L118.373 7.27967L124.368 7.53562ZM124.183 11.875L118.188 11.6191L124.183 11.875ZM124.016 15.7805L130.01 16.0365V16.0364L124.016 15.7805ZM123.831 20.1199L129.758 21.0503L129.811 20.715L129.825 20.3758L123.831 20.1199ZM121.224 36.7236L115.297 35.7932L114.952 37.9913L116.124 39.883L121.224 36.7236ZM7.58471 36.9975L12.7041 40.1266L13.854 38.2453L13.5121 36.0671L7.58471 36.9975ZM4.93545 20.1199L-1.05908 20.3758L-1.0446 20.715L-0.991967 21.0503L4.93545 20.1199ZM4.75017 15.7805L10.7447 15.5246L4.75017 15.7805ZM4.58342 11.875L-1.41112 12.131L4.58342 11.875ZM4.39814 7.53562L-1.5964 7.79157L4.39814 7.53562ZM4.28698 4.93203L-1.47367 3.25424L-1.74966 4.20187L-1.70756 5.18798L4.28698 4.93203ZM1.16763 -1.99729L-0.166778 -0.0920129L9.66226 6.79202L10.9967 4.88675L1.16763 -1.99729ZM5.55144 -5.18708L3.06644 -3.74232L9.09786 6.63178L11.5829 5.18702L5.55144 -5.18708ZM11.3533 -5.72734L9.22987 -5.96332L7.90443 5.96326L10.0278 6.19924L11.3533 -5.72734ZM13.9029 -5.18184L12.0355 -5.61137L9.34559 6.08327L11.2131 6.51281L13.9029 -5.18184ZM18.2657 -3.7143L14.5122 -5.00734L10.6038 6.33831L14.3572 7.63135L18.2657 -3.7143ZM41.167 6.32232L18.7243 -3.53494L13.8986 7.45199L36.3413 17.3093L41.167 6.32232ZM64.4888 1.14371C54.6109 1.14371 45.1833 2.94359 36.6168 6.20938L40.8914 17.4222C48.0916 14.6773 56.0705 13.1437 64.4888 13.1437V1.14371ZM92.2376 6.16254C83.7039 2.92638 74.3194 1.14371 64.4888 1.14371V13.1437C72.8668 13.1437 80.8095 14.6627 87.9826 17.3829L92.2376 6.16254ZM110.042 -3.53494L87.6972 6.27922L92.5229 17.2662L114.867 7.452L110.042 -3.53494ZM114.254 -5.00734L110.5 -3.7143L114.409 7.63135L118.162 6.33831L114.254 -5.00734ZM116.731 -5.61137L114.863 -5.18184L117.553 6.51281L119.42 6.08327L116.731 -5.61137ZM119.536 -5.96332L117.413 -5.72734L118.738 6.19924L120.862 5.96326L119.536 -5.96332ZM125.7 -3.74232L123.215 -5.18708L117.183 5.18702L119.668 6.63178L125.7 -3.74232ZM128.933 -0.0920205L127.598 -1.99729L117.769 4.88675L119.104 6.79202L128.933 -0.0920205ZM130.24 3.25426L129.779 1.67223L118.258 5.02777L118.718 6.6098L130.24 3.25426ZM130.362 7.79158L130.474 5.18798L118.485 4.67608L118.373 7.27967L130.362 7.79158ZM130.177 12.131L130.362 7.79157L118.373 7.27967L118.188 11.6191L130.177 12.131ZM130.01 16.0364L130.177 12.131L118.188 11.6191L118.021 15.5246L130.01 16.0364ZM129.825 20.3758L130.01 16.0365L118.021 15.5245L117.836 19.8639L129.825 20.3758ZM127.152 37.654L129.758 21.0503L117.903 19.1895L115.297 35.7932L127.152 37.654ZM134.978 63.5718C134.978 52.6698 131.822 42.4388 126.325 33.5643L116.124 39.883C120.517 46.9763 122.978 55.0358 122.978 63.5718H134.978ZM64.4888 126C102.641 126 134.978 98.7774 134.978 63.5718H122.978C122.978 90.695 97.5688 114 64.4888 114V126ZM-6 63.5718C-6 98.7774 26.3365 126 64.4888 126V114C31.4087 114 6 90.695 6 63.5718H-6ZM2.46529 33.8683C-2.91613 42.6726 -6 52.7947 -6 63.5718H6C6 55.1327 8.40493 47.1603 12.7041 40.1266L2.46529 33.8683ZM-0.991967 21.0503L1.65729 37.9279L13.5121 36.0671L10.8629 19.1895L-0.991967 21.0503ZM-1.24436 16.0364L-1.05908 20.3758L10.93 19.8639L10.7447 15.5246L-1.24436 16.0364ZM-1.41112 12.131L-1.24436 16.0365L10.7447 15.5246L10.578 11.6191L-1.41112 12.131ZM-1.5964 7.79157L-1.41112 12.131L10.578 11.6191L10.3927 7.27967L-1.5964 7.79157ZM-1.70756 5.18798L-1.5964 7.79157L10.3927 7.27968L10.2815 4.67608L-1.70756 5.18798ZM-1.0129 1.67221L-1.47367 3.25424L10.0476 6.60981L10.5084 5.02779L-1.0129 1.67221Z" fill="#616153"/>
<path d="M70.3924 82.7489C70.4327 81.2615 69.2112 80.268 68.0116 80.2355C66.8121 80.2029 65.4892 81.1754 65.4489 82.6629C65.4437 82.8548 65.4852 83.096 65.4774 83.3839C65.4735 83.5279 65.4696 83.6718 65.4657 83.8158C65.4058 86.0229 64.7168 90.1818 58.863 90.0231C54.8324 89.9138 52.3831 86.3901 52.478 82.8874C52.5691 79.5286 53.5224 78.0179 55.9801 75.9237C56.6195 75.3649 56.9256 74.7009 56.9425 74.0771C56.9815 72.6377 55.6745 71.2577 54.187 71.2174C52.0758 71.1601 47.5962 75.2162 47.3984 82.5095C47.202 89.7549 51.8597 95.0671 58.6252 95.2505C65.1508 95.4275 67.6878 90.4064 68.0432 89.6958C69.2737 92.13 71.7751 93.7344 75.0379 93.8229C81.3716 93.9947 84.3832 89.1785 84.5199 84.1404C84.6747 78.4305 81.28 74.353 79.3127 74.2996C77.9212 74.2619 76.6865 75.5249 76.6501 76.8684C76.6345 77.4442 76.8108 78.0252 77.3256 78.5193C78.3539 79.5556 79.7504 81.178 79.6801 83.7691C79.5956 86.8879 77.335 88.7953 75.2718 88.7394C75.2238 88.7381 75.1758 88.7368 75.1278 88.7355C72.2489 88.6574 70.3699 87.1179 70.3534 84.1884L70.3924 82.7489Z" fill="#616153"/>
<path d="M51.6171 11H51.6171C49.6194 11 48 12.6194 48 14.6171V27.9587C48 29.9564 49.6194 31.5758 51.6171 31.5758C53.6148 31.5758 55.2342 29.9564 55.2342 27.9587V14.6171C55.2342 12.6194 53.6148 11 51.6171 11Z" fill="#616153"/>
<path d="M69 14.5C69 12.567 67.433 11 65.5 11C63.567 11 62 12.567 62 14.5V28.5C62 30.433 63.567 32 65.5 32C67.433 32 69 30.433 69 28.5V14.5Z" fill="#616153"/>
<path d="M79.7341 11H79.7341C77.7364 11 76.1169 12.6194 76.1169 14.6171V27.9587C76.1169 29.9564 77.7364 31.5758 79.7341 31.5758C81.7317 31.5758 83.3512 29.9564 83.3512 27.9587V14.6171C83.3512 12.6194 81.7317 11 79.7341 11Z" fill="#616153"/>
<path d="M16.0854 16.8079C15.8804 15.2368 17.4967 14.0625 18.9276 14.743L30.4297 20.2133C31.8 20.8651 31.9739 22.7456 30.7463 23.6375L20.8925 30.7967C19.6649 31.6886 17.9301 30.9422 17.7337 29.4375L16.0854 16.8079Z" fill="#D9D9D9"/>
<path d="M113.971 16.0608C114.176 14.4896 112.559 13.3153 111.128 13.9958L99.6263 19.4662C98.256 20.1179 98.0822 21.9984 99.3098 22.8903L109.164 30.0495C110.391 30.9414 112.126 30.195 112.322 28.6903L113.971 16.0608Z" fill="#D9D9D9"/>
</g>
</svg>
